<svg width="182" height="58" viewBox="0 0 182 58" fill="none" xmlns="http://www.w3.org/2000/svg">
<path d="M0 29C0 12.9837 13.1124 0 29.2874 0H152.713C168.888 0 182 12.9837 182 29C182 45.0163 168.888 58 152.713 58H29.2874C13.1124 58 0 45.0163 0 29Z" fill="#7406FF"/>
<path d="M0 29C0 12.9837 13.1124 0 29.2874 0H152.713C168.888 0 182 12.9837 182 29C182 45.0163 168.888 58 152.713 58H29.2874C13.1124 58 0 45.0163 0 29Z" fill="url(#paint0_radial_1795_166)" fill-opacity="0.6"/>
<defs>
<radialGradient id="paint0_radial_1795_166" cx="0" cy="0" r="1" gradientUnits="userSpaceOnUse" gradientTransform="translate(174.958 42.9821) rotate(178.882) scale(159.28 50.9305)">
<stop stop-color="#FF7918" stop-opacity="0"/>
<stop offset="1" stop-color="#CFA9FF"/>
</radialGradient>
</defs>
</svg>
